<?xml version="1.0" encoding="utf-8"?>
<!-- Generator: Adobe Illustrator 24.1.1, SVG Export Plug-In . SVG Version: 6.00 Build 0)  -->
<svg version="1.1" baseProfile="basic" id="Layer_1"
	 xmlns="http://www.w3.org/2000/svg" xmlns:xlink="http://www.w3.org/1999/xlink" x="0px" y="0px" viewBox="0 0 278 42"
	 xml:space="preserve">
<style type="text/css">
	.st0{fill:#3CBBD6;}
</style>
<g>
	<path class="st0" d="M17.98,12.64l2.83,4.48l2.66-4.48h4.94l-5.15,8.25l5.78,9.02h-4.74l-3.39-5.37l-3.34,5.37h-4.74l5.69-9.14
		l-5.23-8.13H17.98z"/>
	<path class="st0" d="M36.82,29.91h-4.21V12.64h6.46c1.6,0,2.92,0.49,3.97,1.48c1.05,0.98,1.57,2.31,1.57,3.97
		c0,1.26-0.32,2.33-0.96,3.23c-0.64,0.9-1.49,1.52-2.55,1.87l4.35,6.73h-4.6l-4.04-6.39V29.91z M36.82,19.8h1.86
		c1.16,0,1.74-0.57,1.74-1.72c0-0.52-0.16-0.93-0.47-1.26c-0.31-0.32-0.74-0.48-1.27-0.48h-1.86V19.8z"/>
	<path class="st0" d="M67.16,27.69c2.78,0,4.6-1.21,5.81-2.23v2.83c-1.04,0.9-2.98,1.86-5.81,1.86c-4.96,0-8.86-3.85-8.86-8.83
		c0-5.08,3.85-8.81,8.86-8.81c2.93,0,4.62,0.82,5.81,1.77v2.71c-1.43-1.23-3.46-2.08-5.81-2.08c-3.65,0-6.39,2.74-6.39,6.41
		C60.77,24.93,63.5,27.69,67.16,27.69z"/>
	<path class="st0" d="M85.96,30.16c-4.99,0-8.86-3.87-8.86-8.86c0-4.99,3.87-8.86,8.86-8.86c4.99,0,8.88,3.87,8.88,8.86
		C94.84,26.28,90.94,30.16,85.96,30.16z M92.37,21.3c0-3.65-2.76-6.39-6.41-6.39c-3.65,0-6.39,2.74-6.39,6.39s2.74,6.39,6.39,6.39
		C89.61,27.69,92.37,24.95,92.37,21.3z"/>
	<path class="st0" d="M106.3,27.45v2.47h-7.09V12.63h2.47v14.81H106.3z"/>
	<path class="st0" d="M117.62,27.45v2.47h-7.09V12.63H113v14.81H117.62z"/>
	<path class="st0" d="M129.31,12.63l6.51,17.28h-2.59l-1.26-3.48h-6.87l-1.36,3.48h-2.49l6.49-17.28H129.31z M125.94,24.18h5.18
		l-2.59-6.9L125.94,24.18z"/>
	<path class="st0" d="M146.61,20.31c1.77,0.22,4.09,1.82,4.09,4.6c0,3.58-2.59,5.01-5.35,5.01h-5.52V12.63h3.63
		c2.52,0,5.03,1.55,5.03,4.38C148.49,18.95,147.65,19.77,146.61,20.31z M143.51,19.68c1.19,0,2.37-0.82,2.37-2.45
		c0-1.45-1.11-2.13-2.37-2.13h-1.21v4.57H143.51z M144.96,27.45c1.65,0,3.17-0.82,3.17-2.66c0-1.79-1.43-2.64-3.17-2.64h-2.66v5.3
		H144.96z"/>
	<path class="st0" d="M163.47,30.16c-4.99,0-8.86-3.87-8.86-8.86c0-4.99,3.87-8.86,8.86-8.86c4.99,0,8.88,3.87,8.88,8.86
		C172.35,26.28,168.46,30.16,163.47,30.16z M169.88,21.3c0-3.65-2.76-6.39-6.41-6.39c-3.65,0-6.39,2.74-6.39,6.39
		s2.74,6.39,6.39,6.39C167.12,27.69,169.88,24.95,169.88,21.3z"/>
	<path class="st0" d="M181.97,21.86l5.13,8.06h-2.93l-4.99-7.84v7.84h-2.47V12.63h4.91c2.66,0,4.57,2.08,4.57,4.74
		C186.21,20.19,184.2,21.54,181.97,21.86z M181.61,15.1h-2.4v4.5h2.4c1.33,0,2.18-1.04,2.18-2.23S182.94,15.1,181.61,15.1z"/>
	<path class="st0" d="M198.23,12.63l6.51,17.28h-2.59l-1.26-3.48h-6.87l-1.36,3.48h-2.49l6.49-17.28H198.23z M194.87,24.18h5.18
		l-2.59-6.9L194.87,24.18z"/>
	<path class="st0" d="M217.71,15.1h-3.56v14.81h-2.47V15.1h-3.61v-2.47h9.63V15.1z"/>
	<path class="st0" d="M221.84,29.91V12.63h2.47v17.28H221.84z"/>
	<path class="st0" d="M237.67,30.16c-4.99,0-8.86-3.87-8.86-8.86c0-4.99,3.87-8.86,8.86-8.86c4.99,0,8.88,3.87,8.88,8.86
		C246.55,26.28,242.65,30.16,237.67,30.16z M244.08,21.3c0-3.65-2.76-6.39-6.41-6.39c-3.65,0-6.39,2.74-6.39,6.39
		s2.74,6.39,6.39,6.39C241.32,27.69,244.08,24.95,244.08,21.3z"/>
	<path class="st0" d="M262.37,12.63h2.47v17.28h-2.4l-9.05-12.95v12.95h-2.47V12.63h2.42l9.03,12.9V12.63z"/>
</g>
</svg>
